<mxfile host="app.diagrams.net" modified="2024-01-24T08:54:34.624Z" agent="Mozilla/5.0 (X11; Linux x86_64) AppleWebKit/537.36 (KHTML, like Gecko) Chrome/120.0.0.0 Safari/537.36" etag="mokbOP76ZgbtbW4gNy3p" version="22.1.21" type="device">
  <diagram name="Page-1" id="A40tZgbPO38UvOKGLxVQ">
    <mxGraphModel dx="1135" dy="661" grid="1" gridSize="10" guides="1" tooltips="1" connect="1" arrows="1" fold="1" page="1" pageScale="1" pageWidth="850" pageHeight="1100" math="0" shadow="0">
      <root>
        <mxCell id="0" />
        <mxCell id="1" parent="0" />
        <mxCell id="kWrb8g8LkhjeB9GRbZ16-13" value="" style="rounded=0;whiteSpace=wrap;html=1;fontStyle=1;fontSize=17;strokeWidth=2;" vertex="1" parent="1">
          <mxGeometry x="300" y="260" width="390" height="350" as="geometry" />
        </mxCell>
        <mxCell id="kWrb8g8LkhjeB9GRbZ16-26" value="" style="rounded=0;whiteSpace=wrap;html=1;fillColor=#d5e8d4;strokeColor=#82b366;strokeWidth=0;" vertex="1" parent="1">
          <mxGeometry x="508.5" y="280" width="140" height="200" as="geometry" />
        </mxCell>
        <mxCell id="kWrb8g8LkhjeB9GRbZ16-27" value="&lt;b&gt;&lt;font style=&quot;font-size: 20px;&quot;&gt;Test&lt;/font&gt;&lt;/b&gt;" style="text;html=1;strokeColor=none;fillColor=none;align=center;verticalAlign=middle;whiteSpace=wrap;rounded=0;" vertex="1" parent="1">
          <mxGeometry x="548.5" y="420" width="60" height="30" as="geometry" />
        </mxCell>
        <mxCell id="kWrb8g8LkhjeB9GRbZ16-23" value="" style="rounded=0;whiteSpace=wrap;html=1;fillColor=#d5e8d4;strokeColor=#82b366;strokeWidth=0;" vertex="1" parent="1">
          <mxGeometry x="340" y="280" width="140" height="200" as="geometry" />
        </mxCell>
        <mxCell id="kWrb8g8LkhjeB9GRbZ16-1" value="&lt;span&gt;&lt;font style=&quot;font-size: 18px;&quot;&gt;Developer&lt;/font&gt;&lt;/span&gt;" style="shape=umlActor;verticalLabelPosition=bottom;verticalAlign=top;html=1;fontStyle=1" vertex="1" parent="1">
          <mxGeometry x="70" y="550" width="30" height="60" as="geometry" />
        </mxCell>
        <mxCell id="kWrb8g8LkhjeB9GRbZ16-7" style="edgeStyle=orthogonalEdgeStyle;rounded=0;orthogonalLoop=1;jettySize=auto;html=1;strokeWidth=4;" edge="1" parent="1" source="kWrb8g8LkhjeB9GRbZ16-2">
          <mxGeometry relative="1" as="geometry">
            <mxPoint x="205" y="430" as="targetPoint" />
          </mxGeometry>
        </mxCell>
        <mxCell id="kWrb8g8LkhjeB9GRbZ16-8" value="&lt;font style=&quot;font-size: 16px;&quot;&gt;&lt;b&gt;Push your code&lt;/b&gt;&lt;/font&gt;" style="edgeLabel;html=1;align=center;verticalAlign=middle;resizable=0;points=[];" vertex="1" connectable="0" parent="kWrb8g8LkhjeB9GRbZ16-7">
          <mxGeometry x="0.022" y="-2" relative="1" as="geometry">
            <mxPoint as="offset" />
          </mxGeometry>
        </mxCell>
        <mxCell id="kWrb8g8LkhjeB9GRbZ16-2" value="&lt;b&gt;&lt;font style=&quot;font-size: 18px;&quot;&gt;Local Machine&lt;/font&gt;&lt;/b&gt;" style="verticalLabelPosition=bottom;html=1;verticalAlign=top;align=center;strokeColor=none;fillColor=#00BEF2;shape=mxgraph.azure.computer;pointerEvents=1;" vertex="1" parent="1">
          <mxGeometry x="170" y="550" width="70" height="60" as="geometry" />
        </mxCell>
        <mxCell id="kWrb8g8LkhjeB9GRbZ16-16" style="edgeStyle=orthogonalEdgeStyle;rounded=0;orthogonalLoop=1;jettySize=auto;html=1;strokeWidth=4;jumpStyle=sharp;" edge="1" parent="1" source="kWrb8g8LkhjeB9GRbZ16-3" target="kWrb8g8LkhjeB9GRbZ16-12">
          <mxGeometry relative="1" as="geometry" />
        </mxCell>
        <mxCell id="kWrb8g8LkhjeB9GRbZ16-3" value="&lt;b&gt;&lt;font style=&quot;font-size: 18px;&quot;&gt;GitHub&lt;/font&gt;&lt;/b&gt;" style="shape=image;html=1;verticalAlign=top;verticalLabelPosition=bottom;labelBackgroundColor=#ffffff;imageAspect=0;aspect=fixed;image=https://cdn1.iconfinder.com/data/icons/unicons-line-vol-3/24/github-128.png" vertex="1" parent="1">
          <mxGeometry x="141" y="270" width="128" height="128" as="geometry" />
        </mxCell>
        <mxCell id="kWrb8g8LkhjeB9GRbZ16-17" style="edgeStyle=orthogonalEdgeStyle;rounded=0;orthogonalLoop=1;jettySize=auto;html=1;strokeWidth=4;" edge="1" parent="1" source="kWrb8g8LkhjeB9GRbZ16-12" target="kWrb8g8LkhjeB9GRbZ16-15">
          <mxGeometry relative="1" as="geometry" />
        </mxCell>
        <mxCell id="kWrb8g8LkhjeB9GRbZ16-12" value="&lt;b&gt;&lt;font style=&quot;font-size: 18px;&quot;&gt;Runner&lt;/font&gt;&lt;/b&gt;" style="shadow=0;dashed=0;html=1;strokeColor=none;fillColor=#4495D1;labelPosition=center;verticalLabelPosition=bottom;verticalAlign=top;align=center;outlineConnect=0;shape=mxgraph.veeam.2d.virtual_machine;" vertex="1" parent="1">
          <mxGeometry x="366.5" y="294" width="90" height="80" as="geometry" />
        </mxCell>
        <mxCell id="kWrb8g8LkhjeB9GRbZ16-30" style="edgeStyle=orthogonalEdgeStyle;rounded=0;orthogonalLoop=1;jettySize=auto;html=1;exitX=0.722;exitY=0.993;exitDx=0;exitDy=0;exitPerimeter=0;strokeWidth=3;dashed=1;" edge="1" parent="1" source="kWrb8g8LkhjeB9GRbZ16-14" target="kWrb8g8LkhjeB9GRbZ16-15">
          <mxGeometry relative="1" as="geometry">
            <mxPoint x="579" y="170" as="sourcePoint" />
          </mxGeometry>
        </mxCell>
        <mxCell id="kWrb8g8LkhjeB9GRbZ16-34" value="&lt;b&gt;&lt;font style=&quot;font-size: 16px;&quot;&gt;Docker Pull&lt;br&gt;Run Unit-Test&lt;br&gt;&lt;/font&gt;&lt;/b&gt;" style="edgeLabel;html=1;align=center;verticalAlign=middle;resizable=0;points=[];" vertex="1" connectable="0" parent="kWrb8g8LkhjeB9GRbZ16-30">
          <mxGeometry x="-0.1148" y="2" relative="1" as="geometry">
            <mxPoint x="-3" y="-3" as="offset" />
          </mxGeometry>
        </mxCell>
        <mxCell id="kWrb8g8LkhjeB9GRbZ16-14" value="" style="shape=image;verticalLabelPosition=bottom;labelBackgroundColor=default;verticalAlign=top;aspect=fixed;imageAspect=0;image=https://miro.medium.com/v2/resize:fit:734/0*sCPc1Ib1zT0Lg1vi.png;" vertex="1" parent="1">
          <mxGeometry x="360" y="40" width="303.5" height="127.35" as="geometry" />
        </mxCell>
        <mxCell id="kWrb8g8LkhjeB9GRbZ16-15" value="&lt;b&gt;&lt;font style=&quot;font-size: 18px;&quot;&gt;Runner&lt;/font&gt;&lt;/b&gt;" style="shadow=0;dashed=0;html=1;strokeColor=none;fillColor=#4495D1;labelPosition=center;verticalLabelPosition=bottom;verticalAlign=top;align=center;outlineConnect=0;shape=mxgraph.veeam.2d.virtual_machine;" vertex="1" parent="1">
          <mxGeometry x="533.5" y="294" width="90" height="80" as="geometry" />
        </mxCell>
        <mxCell id="kWrb8g8LkhjeB9GRbZ16-19" value="GitHub CI / CD Workfloe" style="text;html=1;strokeColor=none;fillColor=none;align=center;verticalAlign=middle;whiteSpace=wrap;rounded=0;fontStyle=1;fontSize=24;" vertex="1" parent="1">
          <mxGeometry x="355" y="540" width="280" height="30" as="geometry" />
        </mxCell>
        <mxCell id="kWrb8g8LkhjeB9GRbZ16-24" value="&lt;b&gt;&lt;font style=&quot;font-size: 20px;&quot;&gt;Build&lt;/font&gt;&lt;/b&gt;" style="text;html=1;strokeColor=none;fillColor=none;align=center;verticalAlign=middle;whiteSpace=wrap;rounded=0;" vertex="1" parent="1">
          <mxGeometry x="380" y="420" width="60" height="30" as="geometry" />
        </mxCell>
        <mxCell id="kWrb8g8LkhjeB9GRbZ16-28" style="edgeStyle=orthogonalEdgeStyle;rounded=0;orthogonalLoop=1;jettySize=auto;html=1;entryX=0.173;entryY=0.964;entryDx=0;entryDy=0;entryPerimeter=0;fontSize=13;strokeWidth=3;dashed=1;" edge="1" parent="1" source="kWrb8g8LkhjeB9GRbZ16-12" target="kWrb8g8LkhjeB9GRbZ16-14">
          <mxGeometry relative="1" as="geometry" />
        </mxCell>
        <mxCell id="kWrb8g8LkhjeB9GRbZ16-29" value="&lt;b&gt;&lt;font style=&quot;font-size: 16px;&quot;&gt;Docker Build&lt;br&gt;Push to Hub&amp;nbsp;&lt;/font&gt;&lt;/b&gt;" style="edgeLabel;html=1;align=center;verticalAlign=middle;resizable=0;points=[];" vertex="1" connectable="0" parent="kWrb8g8LkhjeB9GRbZ16-28">
          <mxGeometry x="-0.0277" relative="1" as="geometry">
            <mxPoint x="3" y="-11" as="offset" />
          </mxGeometry>
        </mxCell>
        <mxCell id="kWrb8g8LkhjeB9GRbZ16-35" style="edgeStyle=orthogonalEdgeStyle;rounded=0;orthogonalLoop=1;jettySize=auto;html=1;entryX=0;entryY=0.5;entryDx=0;entryDy=0;entryPerimeter=0;strokeWidth=3;" edge="1" parent="1" source="kWrb8g8LkhjeB9GRbZ16-1" target="kWrb8g8LkhjeB9GRbZ16-2">
          <mxGeometry relative="1" as="geometry" />
        </mxCell>
      </root>
    </mxGraphModel>
  </diagram>
</mxfile>
